Coordinates
version=1
nRows=20
nColumns=63
inDegrees=yes

Units are S.I. units (second, meters, Newtons, ...)
If the header above contains a line with 'inDegrees', this indicates whether rotational values are in degrees (yes) or radians (no).

endheader
time	pelvis_tilt	pelvis_list	pelvis_rotation	pelvis_tx	pelvis_ty	pelvis_tz	hip_flexion_r	hip_adduction_r	hip_rotation_r	knee_angle_r	knee_angle_r_beta	ankle_angle_r	subtalar_angle_r	mtp_angle_r	hip_flexion_l	hip_adduction_l	hip_rotation_l	knee_angle_l	knee_angle_l_beta	ankle_angle_l	subtalar_angle_l	mtp_angle_l	L5_S1_Flex_Ext	L5_S1_Lat_Bending	L5_S1_axial_rotation	L4_L5_Flex_Ext	L4_L5_Lat_Bending	L4_L5_axial_rotation	L3_L4_Flex_Ext	L3_L4_Lat_Bending	L3_L4_axial_rotation	L2_L3_Flex_Ext	L2_L3_Lat_Bending	L2_L3_axial_rotation	L1_L2_Flex_Ext	L1_L2_Lat_Bending	L1_L2_axial_rotation	L1_T12_Flex_Ext	L1_T12_Lat_Bending	L1_T12_axial_rotation	Abs_r3	Abs_r2	Abs_r1	Abs_t1	Abs_t2	neck_flexion	neck_bending	neck_rotation	arm_flex_r	arm_add_r	arm_rot_r	elbow_flex_r	pro_sup_r	wrist_flex_r	wrist_dev_r	arm_flex_l	arm_add_l	arm_rot_l	elbow_flex_l	pro_sup_l	wrist_flex_l	wrist_dev_l
5.307692	2.237612	-5.457498	95.300341	-0.010978	1.034128	0.491478	-1.372216	2.257948	5.333143	0.579337	0.010111	16.494798	-3.474494	0.000000	1.814819	-4.705071	16.879300	2.332020	0.040701	21.395932	-5.690208	0.000000	0.053735	0.391633	-0.549334	0.099790	0.520872	-0.583668	0.088280	0.952216	-0.583668	0.061413	0.952216	-0.480667	0.049898	0.798618	-0.446334	0.030704	0.606639	-0.412001	0.383820	4.430231	-3.055232	0.000000	0.000000	23.012246	0.753619	2.991676	1.581935	-9.317745	42.654236	53.938216	3.486713	-14.525511	18.145497	16.552200	-9.496979	71.623402	50.202556	48.743323	-6.548076	5.303300
5.326923	2.180794	-5.495989	95.303387	-0.011041	1.034089	0.491368	-1.337308	2.191959	5.805733	0.561742	0.009804	16.466740	-4.058544	0.000000	1.842125	-4.637595	16.909151	2.331453	0.040692	21.330908	-5.772310	0.000000	0.057841	0.383654	-0.509280	0.107416	0.510260	-0.541110	0.095027	0.932817	-0.541110	0.066106	0.932817	-0.445620	0.053711	0.782348	-0.413790	0.033050	0.594281	-0.381960	0.413151	4.339976	-2.832460	0.000000	0.000000	23.106077	0.699535	2.733904	1.376616	-9.305171	42.314064	54.044439	3.553783	-14.443798	17.970698	16.665793	-9.366258	71.575482	50.152798	48.594207	-6.281923	5.642271
5.346154	2.128639	-5.532511	95.313607	-0.011100	1.034062	0.491242	-1.305890	2.129209	6.091879	0.550964	0.009616	16.467125	-4.393401	0.000000	1.869726	-4.578435	16.853281	2.330894	0.040682	21.288042	-5.718669	0.000000	0.061664	0.376079	-0.479382	0.114517	0.500185	-0.509343	0.101308	0.914398	-0.509343	0.070476	0.914398	-0.419459	0.057262	0.766900	-0.389498	0.035235	0.582546	-0.359536	0.440462	4.254280	-2.666177	0.000000	0.000000	23.189343	0.662180	2.524411	1.233666	-9.293935	42.084385	54.084313	3.619592	-14.256135	17.884552	16.739154	-9.262334	71.459631	50.136143	48.463214	-6.059367	5.990863
5.365385	2.092348	-5.564497	95.324115	-0.011170	1.034042	0.491109	-1.278358	2.079038	6.076282	0.549244	0.009586	16.512559	-4.314241	0.000000	1.899484	-4.539342	16.582029	2.338899	0.040821	21.317924	-5.351946	0.000000	0.064911	0.370721	-0.454293	0.120546	0.493059	-0.482686	0.106642	0.901371	-0.482686	0.074187	0.901371	-0.397506	0.060276	0.755974	-0.369113	0.037090	0.574247	-0.340719	0.463653	4.193668	-2.526639	0.000000	0.000000	23.270211	0.632752	2.352369	1.114233	-9.286411	41.872807	54.125670	3.655486	-14.179251	17.862744	16.797215	-9.168876	71.354736	50.116577	48.413737	-5.857113	6.244795
5.384615	2.072314	-5.592443	95.330537	-0.011239	1.034029	0.490971	-1.254655	2.042881	5.857262	0.554934	0.009685	16.567542	-3.964653	0.000000	1.926278	-4.520140	16.209831	2.346984	0.040963	21.376348	-4.828948	0.000000	0.068306	0.367487	-0.433559	0.126850	0.488758	-0.460656	0.112219	0.893508	-0.460656	0.078066	0.893508	-0.379364	0.063429	0.749379	-0.352267	0.039030	0.569237	-0.325169	0.487900	4.157085	-2.411325	0.000000	0.000000	23.332045	0.607912	2.207841	1.025535	-9.285955	41.709861	54.132811	3.668037	-14.052052	17.906476	16.839233	-9.090667	71.277537	50.093116	48.382996	-5.653811	6.425279
5.403846	2.068647	-5.610928	95.331856	-0.011304	1.034013	0.490833	-1.243780	2.025034	5.707905	0.559978	0.009773	16.560113	-3.745095	0.000000	1.936953	-4.518450	15.940650	2.343566	0.040903	21.406352	-4.426852	0.000000	0.070960	0.366446	-0.413641	0.131780	0.487374	-0.439494	0.116580	0.890978	-0.439494	0.081100	0.890978	-0.361936	0.065893	0.747258	-0.336084	0.040547	0.567625	-0.310231	0.506860	4.145315	-2.300550	0.000000	0.000000	23.385525	0.568329	2.062846	0.932109	-9.287119	41.520310	54.161598	3.664007	-14.034522	17.970618	16.882128	-9.026055	71.273545	50.068085	48.352945	-5.459616	6.537313
5.423077	2.076498	-5.616873	95.334830	-0.011365	1.034006	0.490717	-1.247750	2.022175	5.616490	0.564534	0.009853	16.489520	-3.655643	0.000000	1.930289	-4.529274	15.820623	2.332072	0.040702	21.393929	-4.188318	0.000000	0.072596	0.366991	-0.397900	0.134817	0.488098	-0.422768	0.119267	0.892302	-0.422768	0.082970	0.892302	-0.348162	0.067412	0.748368	-0.323293	0.041481	0.568469	-0.298425	0.518543	4.151476	-2.212998	0.000000	0.000000	23.414708	0.533954	1.945528	0.857685	-9.292934	41.366372	54.176456	3.647212	-13.989923	18.034579	16.912146	-8.977302	71.306163	50.033975	48.382508	-5.261693	6.590220
5.442308	2.093736	-5.610069	95.321230	-0.011398	1.034003	0.490629	-1.263301	2.029714	5.478616	0.571278	0.009971	16.408075	-3.495891	0.000000	1.905136	-4.551283	15.781133	2.317276	0.040444	21.362991	-4.038828	0.000000	0.073286	0.368737	-0.378633	0.136099	0.490421	-0.402297	0.120401	0.896548	-0.402297	0.083758	0.896548	-0.331304	0.068053	0.751929	-0.307639	0.041876	0.571174	-0.283975	0.523474	4.171230	-2.105842	0.000000	0.000000	23.418731	0.492528	1.821605	0.776692	-9.299149	41.197513	54.202850	3.616762	-13.973039	18.076186	16.956943	-8.932157	71.439587	49.975955	48.437908	-5.069423	6.558887
5.461538	2.119969	-5.588637	95.310121	-0.011428	1.033998	0.490577	-1.291049	2.047363	5.183486	0.581436	0.010148	16.357781	-3.123886	0.000000	1.871093	-4.585662	15.670860	2.314947	0.040403	21.388762	-3.734334	0.000000	0.072705	0.371677	-0.356308	0.135021	0.494330	-0.378577	0.119448	0.903694	-0.378577	0.083095	0.903694	-0.311770	0.067514	0.757923	-0.289500	0.041544	0.575727	-0.267231	0.519328	4.204479	-1.981679	0.000000	0.000000	23.398834	0.443158	1.686338	0.669320	-9.293481	40.937627	54.256546	3.563910	-14.054029	18.165760	17.014344	-8.877601	71.642403	49.892332	48.588703	-4.889823	6.471742
5.480769	2.156460	-5.555266	95.289822	-0.011442	1.033979	0.490556	-1.329042	2.077390	4.966868	0.589675	0.010292	16.289949	-2.845397	0.000000	1.821463	-4.630213	15.691999	2.310402	0.040324	21.402367	-3.595476	0.000000	0.071191	0.375788	-0.326299	0.132210	0.499798	-0.346692	0.116960	0.913690	-0.346692	0.081365	0.913690	-0.285511	0.066108	0.766306	-0.265118	0.040679	0.582095	-0.244724	0.508513	4.250985	-1.814775	0.000000	0.000000	23.362198	0.375387	1.509057	0.532957	-9.294771	40.623051	54.367256	3.481165	-14.266802	18.191648	17.096215	-8.803860	71.918225	49.777454	48.854918	-4.705800	6.346062
5.500000	2.195040	-5.513481	95.267224	-0.011450	1.033941	0.490553	-1.374813	2.111148	4.839350	0.594543	0.010377	16.205611	-2.688910	0.000000	1.759111	-4.674959	15.880665	2.301442	0.040168	21.388016	-3.678285	0.000000	0.069168	0.380084	-0.289978	0.128452	0.505511	-0.308102	0.113636	0.924135	-0.308102	0.079052	0.924135	-0.253731	0.064230	0.775067	-0.235607	0.039523	0.588750	-0.217484	0.494062	4.299582	-1.612772	0.000000	0.000000	23.309046	0.294554	1.293810	0.369839	-9.299959	40.251790	54.512189	3.383971	-14.529327	18.211819	17.187234	-8.708416	72.201729	49.628416	49.302072	-4.475126	6.208288
5.519231	2.235820	-5.464466	95.241162	-0.011463	1.033893	0.490577	-1.425270	2.147139	4.697189	0.598774	0.010451	16.143758	-2.496082	0.000000	1.692548	-4.721692	16.059056	2.298178	0.040111	21.400726	-3.724170	0.000000	0.066440	0.384906	-0.249668	0.123386	0.511925	-0.265272	0.109155	0.935861	-0.265272	0.075934	0.935861	-0.218460	0.061696	0.784900	-0.202855	0.037964	0.596220	-0.187251	0.474576	4.354135	-1.388579	0.000000	0.000000	23.245890	0.211072	1.073844	0.200837	-9.312211	39.860012	54.683655	3.270203	-14.862523	18.226379	17.295148	-8.593135	72.519665	49.456780	49.923943	-4.307531	5.989026
5.538462	2.273012	-5.413943	95.213819	-0.011473	1.033824	0.490602	-1.478177	2.181315	4.713869	0.599525	0.010464	16.051815	-2.522402	0.000000	1.619247	-4.761254	16.419058	2.285258	0.039885	21.365246	-4.040569	0.000000	0.063682	0.389135	-0.201739	0.118263	0.517550	-0.214347	0.104623	0.946144	-0.214347	0.072782	0.946144	-0.176521	0.059135	0.793525	-0.163913	0.036388	0.602771	-0.151304	0.454873	4.401978	-1.122010	0.000000	0.000000	23.188951	0.112486	0.806125	-0.008445	-9.322651	39.394181	54.888699	3.162494	-15.216328	18.201967	17.413667	-8.454515	72.815423	49.265226	50.777370	-4.099466	5.795318
5.557692	2.310077	-5.361119	95.192094	-0.011489	1.033750	0.490628	-1.529693	2.214763	4.525997	0.606200	0.010580	16.034242	-2.245372	0.000000	1.548563	-4.800639	16.742308	2.277603	0.039752	21.361259	-4.303773	0.000000	0.060923	0.393349	-0.155589	0.113139	0.523154	-0.165313	0.100090	0.956388	-0.165313	0.069628	0.956388	-0.136140	0.056573	0.802117	-0.126416	0.034811	0.609297	-0.116692	0.435164	4.449641	-0.865338	0.000000	0.000000	23.122547	0.014155	0.546987	-0.211257	-9.335700	38.945944	55.076879	3.049286	-15.490163	18.191951	17.528584	-8.311509	73.068771	49.069085	51.882214	-3.914263	5.586371
5.576923	2.338725	-5.309783	95.176502	-0.011519	1.033659	0.490680	-1.580942	2.240269	4.425740	0.607190	0.010597	16.037726	-2.078734	0.000000	1.484724	-4.827483	17.086322	2.273525	0.039681	21.345678	-4.631884	0.000000	0.057756	0.396917	-0.107049	0.107259	0.527900	-0.113739	0.094888	0.965065	-0.113739	0.066010	0.965065	-0.093668	0.053633	0.809394	-0.086977	0.033002	0.614825	-0.080287	0.412548	4.490009	-0.595374	0.000000	0.000000	23.058912	-0.081659	0.293530	-0.413873	-9.353698	38.498297	55.273739	2.936145	-15.778675	18.160366	17.663087	-8.167210	73.343749	48.890175	52.960548	-3.761158	5.351941
5.596154	2.367579	-5.257215	95.161652	-0.011549	1.033570	0.490734	-1.629521	2.268391	4.367568	0.611216	0.010668	16.044892	-1.963540	0.000000	1.421511	-4.853897	17.471436	2.269890	0.039617	21.308381	-5.039997	0.000000	0.054272	0.400696	-0.059226	0.100788	0.532925	-0.062927	0.089163	0.974251	-0.062927	0.062027	0.974251	-0.051822	0.050397	0.817099	-0.048121	0.031011	0.620678	-0.044419	0.387657	4.532750	-0.329395	0.000000	0.000000	22.991482	-0.175052	0.060075	-0.609500	-9.375483	38.070026	55.469279	2.824689	-16.062726	18.121232	17.801606	-8.023748	73.599679	48.717366	54.272713	-3.660265	5.091107
5.615385	2.372041	-5.213284	95.139914	-0.011563	1.033472	0.490788	-1.670471	2.273451	4.419035	0.611787	0.010678	16.069786	-1.993864	0.000000	1.368562	-4.854255	17.790359	2.269601	0.039612	21.256655	-5.414367	0.000000	0.051387	0.401354	-0.010911	0.095430	0.533801	-0.011593	0.084423	0.975852	-0.011593	0.058730	0.975852	-0.009547	0.047718	0.818441	-0.008865	0.029362	0.621697	-0.008183	0.367050	4.540195	-0.060683	0.000000	0.000000	22.942824	-0.270575	-0.193716	-0.818955	-9.372828	37.613877	55.636977	2.731170	-16.238437	18.080227	17.949137	-7.900225	73.862481	48.583206	55.344921	-3.582739	4.896599
5.634615	2.360783	-5.173089	95.120179	-0.011566	1.033386	0.490838	-1.708413	2.264926	4.517907	0.608433	0.010619	16.111415	-2.086632	0.000000	1.321027	-4.838866	18.011256	2.267605	0.039577	21.193079	-5.726449	0.000000	0.048437	0.400172	0.033824	0.089953	0.532228	0.035938	0.079577	0.972977	0.035938	0.055359	0.972977	0.029596	0.044979	0.816030	0.027482	0.027677	0.619866	0.025368	0.345981	4.526820	0.188117	0.000000	0.000000	22.894904	-0.366542	-0.423496	-1.020955	-9.352156	37.166045	55.766101	2.687637	-16.305786	18.068178	18.087639	-7.793831	74.087569	48.478831	56.402216	-3.576742	4.707545
5.653846	2.333727	-5.139170	95.105187	-0.011578	1.033298	0.490899	-1.740072	2.241284	4.728955	0.602368	0.010513	16.153052	-2.329463	0.000000	1.288727	-4.806035	18.131393	2.277045	0.039742	21.156338	-5.954066	0.000000	0.045212	0.397195	0.072008	0.083963	0.528269	0.076508	0.074278	0.965740	0.076508	0.051672	0.965740	0.063007	0.041984	0.809960	0.058506	0.025834	0.615255	0.054006	0.322942	4.493148	0.400487	0.000000	0.000000	22.862376	-0.438024	-0.621485	-1.199939	-9.334153	36.784586	55.894143	2.643817	-16.376909	18.013835	18.227929	-7.713321	74.303491	48.421817	57.106515	-3.598407	4.567635
5.673077	2.287636	-5.114826	95.088519	-0.011579	1.033209	0.490947	-1.762932	2.199585	5.040562	0.595193	0.010388	16.215485	-2.702036	0.000000	1.269620	-4.753567	18.172591	2.291442	0.039993	21.148666	-6.132813	0.000000	0.042384	0.391828	0.102811	0.078711	0.521131	0.109237	0.069633	0.952690	0.109237	0.048441	0.952690	0.089960	0.039358	0.799015	0.083534	0.024218	0.606941	0.077108	0.302745	4.432436	0.571804	0.000000	0.000000	22.846506	-0.490180	-0.782816	-1.344134	-9.311861	36.488181	55.992398	2.623717	-16.397436	17.950515	18.355690	-7.664113	74.494333	48.411122	57.438841	-3.656631	4.478847
